<svg width="60" height="60" viewBox="0 0 60 60" fill="none" xmlns="http://www.w3.org/2000/svg">
<path fill-rule="evenodd" clip-rule="evenodd" d="M50.2227 15.2317L43.9335 18.33V51.3021H50.2227V15.2317Z" fill="#EE3333"/>
<path fill-rule="evenodd" clip-rule="evenodd" d="M31.1897 16.5265C32.841 17.9196 33.9509 19.8481 34.3259 21.9758L50.237 13.7519L50.2226 6.53784L31.1897 16.5265Z" fill="#EE3333"/>
<path fill-rule="evenodd" clip-rule="evenodd" d="M9.52771 13.752L25.6207 22.0758C25.6207 22.0758 27.2778 23.0622 27.2855 24.6655C27.2932 26.2688 27.2855 51.3021 27.2855 51.3021H33.3897L33.2046 23.9256C33.2046 23.9256 33.9987 19.5168 28.3953 16.3416C22.792 13.1663 9.52771 6.72278 9.52771 6.72278V13.752Z" fill="#EE3333"/>
<path fill-rule="evenodd" clip-rule="evenodd" d="M9.52771 15.2317L15.8169 18.33V51.3021H9.52771V15.2317Z" fill="#EE3333"/>
</svg>
