<svg width="39" height="39" viewBox="0 0 39 39" fill="none" xmlns="http://www.w3.org/2000/svg">
<circle cx="19.5" cy="19.5" r="19.5" fill="#2787F5"/>
<path fill-rule="evenodd" clip-rule="evenodd" d="M18.7852 24.9498H19.9807C19.9807 24.9498 20.3418 24.9081 20.5262 24.699C20.6959 24.5071 20.6904 24.1468 20.6904 24.1468C20.6904 24.1468 20.6671 22.4597 21.4116 22.2112C22.1455 21.9665 23.0879 23.8418 24.0868 24.5628C24.8421 25.1085 25.4161 24.9889 25.4161 24.9889L28.087 24.9498C28.087 24.9498 29.4842 24.8592 28.8217 23.7039C28.7674 23.6093 28.4359 22.8492 26.8359 21.2871C25.1612 19.6523 25.3854 19.9167 27.4028 17.0888C28.6314 15.3666 29.1226 14.3152 28.9692 13.8648C28.8228 13.4359 27.9192 13.5493 27.9192 13.5493L24.9119 13.569C24.9119 13.569 24.689 13.537 24.5237 13.641C24.3621 13.7429 24.2581 13.9805 24.2581 13.9805C24.2581 13.9805 23.7822 15.3132 23.1474 16.4466C21.8082 18.8382 21.2728 18.9644 21.054 18.8159C20.5449 18.4698 20.672 17.4255 20.672 16.6836C20.672 14.366 21.0062 13.3997 20.0211 13.1495C19.6942 13.0664 19.4537 13.0116 18.6177 13.0027C17.5447 12.991 16.6365 13.0062 16.1222 13.2712C15.7801 13.4473 15.5162 13.84 15.6769 13.8626C15.8757 13.8905 16.3258 13.9902 16.5645 14.332C16.8727 14.7729 16.8618 15.7632 16.8618 15.7632C16.8618 15.7632 17.0388 18.4915 16.4483 18.8305C16.0429 19.0629 15.4869 18.5883 14.293 16.4186C13.6813 15.3072 13.2195 14.0787 13.2195 14.0787C13.2195 14.0787 13.1304 13.8491 12.9716 13.7263C12.7788 13.5776 12.5094 13.5302 12.5094 13.5302L9.65176 13.5499C9.65176 13.5499 9.22277 13.5624 9.06529 13.7586C8.92519 13.9331 9.05416 14.294 9.05416 14.294C9.05416 14.294 11.2914 19.7991 13.8247 22.5733C16.1475 25.1168 18.7852 24.9498 18.7852 24.9498Z" fill="white"/>
</svg>
