<svg width="39" height="39" viewBox="0 0 39 39" fill="none" xmlns="http://www.w3.org/2000/svg">
<circle cx="19.5" cy="19.5" r="19.5" fill="#EE3333"/>
<g clip-path="url(#clip0)">
<path d="M30.5467 13.7189C30.2931 12.7764 29.5501 12.0335 28.6078 11.7797C26.8862 11.3086 19.9998 11.3086 19.9998 11.3086C19.9998 11.3086 13.1136 11.3086 11.392 11.7618C10.4678 12.0154 9.70663 12.7766 9.45302 13.7189C9 15.4403 9 19.0104 9 19.0104C9 19.0104 9 22.5984 9.45302 24.3019C9.7068 25.2442 10.4497 25.9872 11.3921 26.241C13.1317 26.7122 20 26.7122 20 26.7122C20 26.7122 26.8862 26.7122 28.6078 26.259C29.5502 26.0054 30.2931 25.2623 30.5469 24.32C30.9999 22.5984 30.9999 19.0285 30.9999 19.0285C30.9999 19.0285 31.018 15.4403 30.5467 13.7189Z" fill="white"/>
<path d="M17.8071 22.3087L23.5336 19.0105L17.8071 15.7123V22.3087Z" fill="#FF0000"/>
</g>
<defs>
<clipPath id="clip0">
<rect width="22" height="22" fill="white" transform="translate(9 8)"/>
</clipPath>
</defs>
</svg>
