<svg width="82" height="70" viewBox="0 0 82 70" fill="none" xmlns="http://www.w3.org/2000/svg">
<path d="M75.5938 30.9961C74.743 30.9961 73.9235 31.1306 73.1538 31.3776C71.5253 29.9405 69.7103 28.7842 67.7655 27.9307C71.4475 25.151 73.832 20.7395 73.832 15.7812C73.832 7.39179 67.0067 0.566406 58.6172 0.566406C50.2277 0.566406 43.4023 7.39179 43.4023 15.7812C43.4023 19.8047 44.9728 23.4678 47.5321 26.1914H34.4679C37.0272 23.4678 38.5977 19.8047 38.5977 15.7812C38.5977 7.39179 31.7723 0.566406 23.3828 0.566406C14.9933 0.566406 8.16797 7.39179 8.16797 15.7812C8.16797 20.7395 10.5525 25.151 14.2345 27.9305C12.2899 28.7842 10.4747 29.9403 8.84623 31.3774C8.07652 31.1306 7.257 30.9961 6.40625 30.9961C2.87384 30.9961 0 33.8699 0 37.4023V44.6094C0 45.714 0.746488 46.6419 1.76172 46.9227V67.0312C1.76172 68.358 2.83733 69.4336 4.16406 69.4336H77.8359C79.1627 69.4336 80.2383 68.358 80.2383 67.0312V46.9227C81.2535 46.6419 82 45.714 82 44.6094V37.4023C82 33.8699 79.1262 30.9961 75.5938 30.9961ZM77.1953 37.4023V42.207H75.5938C73.8275 42.207 72.3906 40.7701 72.3906 39.0039C72.3906 37.2377 73.8275 35.8008 75.5938 35.8008C76.4769 35.8008 77.1953 36.5192 77.1953 37.4023ZM48.207 15.7812C48.207 10.0411 52.877 5.37109 58.6172 5.37109C64.3573 5.37109 69.0273 10.0411 69.0273 15.7812C69.0273 21.5214 64.3573 26.1914 58.6172 26.1914C52.877 26.1914 48.207 21.5214 48.207 15.7812ZM23.3828 5.37109C29.123 5.37109 33.793 10.0411 33.793 15.7812C33.793 21.5214 29.123 26.1914 23.3828 26.1914C17.6427 26.1914 12.9727 21.5214 12.9727 15.7812C12.9727 10.0411 17.6427 5.37109 23.3828 5.37109ZM4.80469 37.4023C4.80469 36.5192 5.52315 35.8008 6.40625 35.8008C8.17245 35.8008 9.60938 37.2377 9.60938 39.0039C9.60938 40.7701 8.17245 42.207 6.40625 42.207H4.80469V37.4023ZM6.56641 47.0077C10.9081 46.9219 14.4141 43.3658 14.4141 39.0039C14.4141 37.2404 13.8399 35.6092 12.8703 34.2849C15.6481 32.1507 19.0219 30.9961 22.582 30.9961C31.413 30.9961 38.5977 38.1807 38.5977 47.0117V64.6289H17.7773V54.2188C17.7773 52.892 16.7017 51.8164 15.375 51.8164C14.0483 51.8164 12.9727 52.892 12.9727 54.2188V64.6289H6.56641V47.0077ZM69.0273 64.6289V54.2188C69.0273 52.892 67.9517 51.8164 66.625 51.8164C65.2983 51.8164 64.2227 52.892 64.2227 54.2188V64.6289H43.4023V47.0117C43.4023 40.5787 40.4692 34.8182 35.8705 30.9961H59.418C62.9781 30.9961 66.3519 32.1507 69.1297 34.2849C68.1601 35.6092 67.5859 37.2404 67.5859 39.0039C67.5859 43.3658 71.0919 46.9217 75.4336 47.0077V64.6289H69.0273Z" fill="white"/>
</svg>
