<svg width="84" height="84" viewBox="0 0 84 84" fill="none" xmlns="http://www.w3.org/2000/svg">
<g clip-path="url(#clip0)">
<path d="M71.6986 12.3016C63.7658 4.36867 53.2187 0 42.0001 0C30.7815 0 20.2342 4.36867 12.3016 12.3014C4.36867 20.2342 0 30.7815 0 42.0001C0 53.2187 4.36867 63.7658 12.3016 71.6986C20.2342 79.6313 30.7815 84 42.0001 84C53.2189 84 63.7658 79.6313 71.6987 71.6984C79.6313 63.7658 84.0002 53.2185 84.0002 41.9999C84.0002 30.7813 79.6313 20.2342 71.6986 12.3016ZM15.7855 15.7855C19.4787 12.0923 23.8144 9.27529 28.54 7.43664C27.2814 9.00803 26.1035 10.8142 25.0242 12.8456C23.7706 15.2049 22.6889 17.7959 21.788 20.5635C18.6672 20.0455 15.7756 19.4086 13.1923 18.6612C14.0019 17.666 14.8657 16.7052 15.7855 15.7855ZM10.2095 22.9007C13.231 23.8682 16.6865 24.6841 20.457 25.3303C19.407 29.7872 18.789 34.5833 18.6415 39.5367H5.00982C5.39701 33.5922 7.18234 27.9189 10.2095 22.9007ZM9.94122 60.6439C7.07751 55.7385 5.38536 50.229 5.00966 44.4635H18.6508C18.8119 49.2753 19.4177 53.935 20.4322 58.2753C16.5843 58.899 13.042 59.6943 9.94122 60.6439ZM15.7855 68.2147C14.7387 67.1678 13.7639 66.0686 12.8601 64.9244C15.5381 64.1819 18.5319 63.553 21.7546 63.0487C22.6618 65.8547 23.7551 68.48 25.024 70.8683C26.2003 73.082 27.4936 75.0271 28.8811 76.6933C24.0232 74.8586 19.5674 71.9963 15.7855 68.2147ZM39.5365 78.4409C35.7946 77.3927 32.2548 73.9756 29.3751 68.5563C28.3679 66.661 27.4833 64.5933 26.7255 62.3896C30.7828 61.9431 35.1001 61.6791 39.5365 61.6171V78.4409ZM39.5365 56.6898C34.6166 56.7569 29.8212 57.0658 25.3303 57.5933C24.3397 53.4981 23.7437 49.0656 23.5801 44.4636H39.5367V56.6898H39.5365ZM39.5365 39.5365H23.5707C23.7202 34.8059 24.3258 30.2497 25.3472 26.0504C29.8094 26.6082 34.5948 26.9475 39.5365 27.0446V39.5365ZM39.5365 22.117C35.0829 22.0272 30.7751 21.7368 26.7465 21.263C27.4997 19.0823 28.3775 17.0355 29.3751 15.1574C32.2546 9.73811 35.7946 6.32101 39.5365 5.27282V22.117ZM73.9459 23.1624C76.8784 28.1159 78.6097 33.6951 78.9907 39.5365H65.359C65.2132 34.6402 64.607 29.898 63.5789 25.485C67.3742 24.8721 70.8725 24.0923 73.9459 23.1624ZM68.2145 15.7855C69.2037 16.7746 70.1277 17.8115 70.9895 18.8879C68.3525 19.608 65.416 20.2191 62.2607 20.711C61.3505 17.8878 60.2521 15.2469 58.9762 12.8456C57.8968 10.8142 56.719 9.00803 55.4603 7.43664C60.1856 9.27529 64.5215 12.0923 68.2145 15.7855ZM44.4636 44.4636H60.4202C60.2555 49.1014 59.6514 53.5675 58.6467 57.6891C54.1852 57.1344 49.4019 56.7982 44.4636 56.7037V44.4636ZM44.4636 39.5365V27.061C49.3864 26.9964 54.1855 26.6901 58.6807 26.1646C59.6856 30.3323 60.2813 34.8487 60.4294 39.5365H44.4636ZM44.4633 5.27282H44.4635C48.2054 6.32101 51.7453 9.73811 54.6249 15.1574C55.6385 17.065 56.5282 19.1471 57.2893 21.3669C53.2266 21.8118 48.9043 22.0738 44.4633 22.1337V5.27282ZM44.4636 78.4409V61.6314C48.913 61.7186 53.2176 62.0064 57.2446 62.4773C56.4934 64.6481 55.6186 66.6861 54.625 68.5563C51.7454 73.9756 48.2056 77.3927 44.4636 78.4409ZM68.2145 68.2147C64.4327 71.9965 59.9769 74.8586 55.1189 76.6931C56.5064 75.0269 57.7997 73.082 58.976 70.8683C60.2262 68.5154 61.3054 65.9319 62.2048 63.1727C65.3982 63.6999 68.3527 64.3517 70.9846 65.1183C70.1244 66.1923 69.2019 67.2272 68.2145 68.2147ZM73.9277 60.8688C70.8704 59.8859 67.3652 59.0588 63.5382 58.4062C64.5712 54.029 65.1868 49.3237 65.3497 44.4636H78.9908C78.6089 50.3171 76.8715 55.9075 73.9277 60.8688Z" fill="white"/>
</g>
<defs>
<clipPath id="clip0">
<rect width="84" height="84" fill="white"/>
</clipPath>
</defs>
</svg>
