<svg width="44" height="44" viewBox="0 0 44 44" fill="none" xmlns="http://www.w3.org/2000/svg">
<rect width="44" height="44" rx="5" fill="#2F80ED"/>
<path d="M19.3 23.625C19.3 22.7917 19.4833 22.1083 19.85 21.575C20.2167 21.025 20.75 20.425 21.45 19.775C21.9333 19.325 22.2917 18.95 22.525 18.65C22.7583 18.3333 22.875 18 22.875 17.65C22.875 17.1667 22.6667 16.7833 22.25 16.5C21.85 16.2 21.325 16.05 20.675 16.05C20.0083 16.05 19.4 16.2083 18.85 16.525C18.3167 16.8417 17.8833 17.2833 17.55 17.85L13.825 15.85C14.5083 14.6833 15.475 13.775 16.725 13.125C17.975 12.475 19.4833 12.15 21.25 12.15C23.2333 12.15 24.825 12.5667 26.025 13.4C27.2417 14.2167 27.85 15.3667 27.85 16.85C27.85 17.5333 27.7333 18.1417 27.5 18.675C27.2667 19.1917 26.9833 19.6333 26.65 20C26.3333 20.35 25.9167 20.75 25.4 21.2C24.8333 21.6833 24.4167 22.1 24.15 22.45C23.8833 22.7833 23.75 23.175 23.75 23.625H19.3ZM21.525 30.225C20.7083 30.225 20.0333 29.975 19.5 29.475C18.9667 28.9583 18.7 28.3333 18.7 27.6C18.7 26.85 18.9583 26.2333 19.475 25.75C20.0083 25.2667 20.6917 25.025 21.525 25.025C22.3583 25.025 23.0417 25.2667 23.575 25.75C24.1083 26.2333 24.375 26.85 24.375 27.6C24.375 28.3333 24.1083 28.9583 23.575 29.475C23.0417 29.975 22.3583 30.225 21.525 30.225Z" fill="white"/>
</svg>
