<svg width="84" height="84" viewBox="0 0 84 84" fill="none" xmlns="http://www.w3.org/2000/svg">
<circle cx="42" cy="42" r="38.5" stroke="white" stroke-width="7"/>
<g clip-path="url(#clip0)">
<path d="M66.5849 35.9335C66.3238 34.9841 65.4352 34.3091 64.4493 34.3091C59.1833 34.3091 53.9173 34.3091 48.6513 34.3091C47.1464 29.6782 45.6415 25.0474 44.1377 20.4165C44.0237 20.0702 43.9131 19.7238 43.7991 19.3786C43.7969 19.3731 43.7936 19.3686 43.7925 19.362C43.6276 18.8264 43.2558 18.3573 42.7711 18.0673C42.7612 18.0607 42.7512 18.053 42.7413 18.0474C42.6483 17.9932 42.5498 17.9512 42.4502 17.9113C42.4093 17.8947 42.3706 17.877 42.3285 17.8637C42.3042 17.8549 42.2798 17.8405 42.2544 17.8339C42.2046 17.8206 42.157 17.8195 42.1083 17.8095C42.0309 17.7929 41.9523 17.7774 41.8726 17.7697C41.8129 17.7641 41.7553 17.7641 41.6956 17.763C41.6071 17.7619 41.5185 17.763 41.4289 17.773C41.3791 17.7785 41.3315 17.7885 41.2828 17.7973C41.2153 17.8095 41.1478 17.8128 41.0792 17.8316C41.0427 17.8416 41.0106 17.8604 40.9752 17.8726C40.9642 17.8759 40.9531 17.8814 40.942 17.8859C40.2759 18.1227 39.7481 18.6914 39.5412 19.3609C39.5389 19.3675 39.5356 19.3731 39.5334 19.3797C37.9157 24.3569 36.3001 29.3341 34.6812 34.3102C29.7782 34.3102 24.8762 34.3102 19.9731 34.3102C19.6091 34.3102 19.2462 34.3102 18.8821 34.3102C17.8973 34.3102 17.0098 34.9852 16.7476 35.9346C16.4643 36.9648 16.9512 37.8423 17.7645 38.4343C21.966 41.4861 26.1664 44.5379 30.368 47.5898C28.842 52.287 27.3161 56.9843 25.788 61.6815C25.6762 62.0267 25.5634 62.3731 25.4505 62.7194C24.8806 64.4722 27.117 66.3699 28.7026 65.218C33.0248 62.0776 37.3458 58.9384 41.6679 55.798C45.6957 58.7259 49.7235 61.6505 53.7513 64.5784C54.0456 64.7909 54.3389 65.0044 54.6332 65.218C56.22 66.3699 58.4541 64.4722 57.8842 62.7194C56.2465 57.6747 54.6055 52.6322 52.9668 47.5875C56.8728 44.7504 60.78 41.9121 64.6872 39.0738C64.9815 38.8603 65.2748 38.6467 65.5691 38.432C66.3824 37.8412 66.8682 36.9637 66.5849 35.9335ZM42.7833 51.165C42.2068 50.7456 41.1268 50.7456 40.5481 51.165C37.6268 53.2884 34.7056 55.4108 31.7843 57.5331C32.7758 54.4813 33.7672 51.4305 34.7587 48.3798C34.8716 48.0346 34.9833 47.6882 35.0962 47.3419C35.4237 46.3349 34.8627 45.4121 34.0793 44.8433C31.2775 42.8073 28.4758 40.7724 25.6729 38.7363C28.8465 38.7363 32.02 38.7363 35.1936 38.7363C35.5576 38.7363 35.9206 38.7363 36.2846 38.7363C37.3037 38.7363 38.1115 38.0547 38.4191 37.1119C39.5013 33.7824 40.5835 30.4506 41.6657 27.121C42.6339 30.1054 43.6033 33.0886 44.5737 36.0718C44.6866 36.4182 44.7972 36.7634 44.9112 37.1097C45.2177 38.0525 46.0266 38.7341 47.0457 38.7341C50.5833 38.7341 54.1209 38.7341 57.6574 38.7341C55.15 40.5555 52.6437 42.3769 50.1362 44.1982C49.8408 44.4118 49.5476 44.6264 49.2521 44.84C48.4687 45.411 47.9066 46.3316 48.2352 47.3386C49.3384 50.7367 50.4428 54.1338 51.5471 57.5309C48.9202 55.6221 46.2921 53.7144 43.6663 51.8057C43.372 51.5921 43.0788 51.3785 42.7833 51.165Z" fill="white"/>
</g>
<defs>
<clipPath id="clip0">
<rect width="50" height="50" fill="white" transform="translate(16.6667 16.6665)"/>
</clipPath>
</defs>
</svg>
