<svg width="21" height="21" viewBox="0 0 21 21" fill="none" xmlns="http://www.w3.org/2000/svg">
<rect width="21" height="21" rx="5" fill="#FBA31E"/>
<path d="M8.57 5.5H11.96L11.39 12.175H9.125L8.57 5.5ZM10.265 16.135C9.765 16.135 9.355 15.985 9.035 15.685C8.715 15.375 8.555 15 8.555 14.56C8.555 14.11 8.715 13.74 9.035 13.45C9.355 13.16 9.765 13.015 10.265 13.015C10.765 13.015 11.17 13.16 11.48 13.45C11.8 13.74 11.96 14.11 11.96 14.56C11.96 15 11.8 15.375 11.48 15.685C11.16 15.985 10.755 16.135 10.265 16.135Z" fill="white"/>
</svg>
